<svg id="Layer_1" data-name="Layer 1" xmlns="http://www.w3.org/2000/svg" width="324" height="436" viewBox="0 0 324 436"><title>coolmat_logo</title><path d="M178.55,254.78v17.78H130.78v11.58h40.79v36.19H92.85V327h78.72v14.91H71.74l.63-.16V305.41h76.82v-8.25H72.37v-13h36.82V272.56H61.26V254.78H89.83q1.74-7.46,2.7-14.2t1.27-14.21H72.06V208.44h44.43V223A171.24,171.24,0,0,1,114,240.18q-1.66,8.56-3.25,14.6h31.27q.94-4.28,1.74-8.49c.53-2.8,1-5.45,1.35-7.93s.64-4.77.8-6.83a36.76,36.76,0,0,0,.08-5.16H125.86V208.44h42.85V223a113.88,113.88,0,0,1-1.9,17.85,137.22,137.22,0,0,1-3.34,13.89Z" transform="translate(-18.26 -20.89)"/><path d="M186.48,215.9h67.3v65.39h-67.3Zm48.57,46.66V234.47H205.21v28.09Zm9,30.15,19.53.16A99.81,99.81,0,0,0,270,306.92q3.9,7.06,8.18,13.57t8.49,12.06q4.2,5.55,7.22,9.36h-23q-2.39-3.17-5.32-7.46T260,326.2q-3-4.6-6-9.52l-18.09,25.23H211.56a204.74,204.74,0,0,0,13.25-17.3q6-8.72,10.24-15.87Q240.12,300.49,244.09,292.71ZM291.71,247h15.55v17.78H291.71v28.89h-19V208.12h19Z" transform="translate(-18.26 -20.89)"/><path d="M85.82,403.72v-1.08h6.53v1.53a7.73,7.73,0,0,1-.8,3.53,9.81,9.81,0,0,1-2,2.75,9.25,9.25,0,0,1-2.73,1.8,7.51,7.51,0,0,1-2.91.64H77.24a12,12,0,0,1-3.14-.45A9.65,9.65,0,0,1,71,411a7.9,7.9,0,0,1-3.33-6.83V391.49a6,6,0,0,1,1-3.49,8.87,8.87,0,0,1,2.57-2.5A11.44,11.44,0,0,1,74.7,384a14.72,14.72,0,0,1,3.62-.48h3.91a7.74,7.74,0,0,1,3.43.8,11.46,11.46,0,0,1,3,2.09,12.26,12.26,0,0,1,2.18,2.85,10,10,0,0,1,1.12,3.1l-6.73.9a3.67,3.67,0,0,0-1.57-2.21,4.56,4.56,0,0,0-2.66-.86H78.71a4.65,4.65,0,0,0-1.57.28,5.15,5.15,0,0,0-2.5,2,2.53,2.53,0,0,0-.42,1.41v9.22a2.87,2.87,0,0,0,.32,1.19,4.8,4.8,0,0,0,.93,1.28,5.62,5.62,0,0,0,1.44,1,4.09,4.09,0,0,0,1.8.41H81.4a5,5,0,0,0,3.2-1A2.87,2.87,0,0,0,85.82,403.72Z" transform="translate(-18.26 -20.89)"/><path d="M106.45,412.89a13.56,13.56,0,0,1-3.94-.58,9.19,9.19,0,0,1-3.3-1.76,8.43,8.43,0,0,1-2.24-3,10.29,10.29,0,0,1-.84-4.33v-11.4a7.75,7.75,0,0,1,.93-3.72,10,10,0,0,1,2.5-3,11.66,11.66,0,0,1,3.69-2,14.06,14.06,0,0,1,4.48-.71h4a14.86,14.86,0,0,1,4.9.77,12.77,12.77,0,0,1,3.82,2,8.78,8.78,0,0,1,2.46,3.07,8.58,8.58,0,0,1,.87,3.78v11.79a9.24,9.24,0,0,1-.71,3.65,7.6,7.6,0,0,1-2.05,2.85,9.46,9.46,0,0,1-3.2,1.86,12.16,12.16,0,0,1-4.17.68Zm4.93-5.83a4,4,0,0,0,1.89-.42,4.69,4.69,0,0,0,1.35-1,3.92,3.92,0,0,0,.8-1.34,4.37,4.37,0,0,0,.25-1.44v-9.1a4.53,4.53,0,0,0-1.24-3,4.4,4.4,0,0,0-3.5-1.44h-1.79a6.2,6.2,0,0,0-1.76.26,4.91,4.91,0,0,0-1.6.8,4.15,4.15,0,0,0-1.19,1.37,4.28,4.28,0,0,0-.45,2.05v8.72a7.53,7.53,0,0,0,.16,1.31,4,4,0,0,0,2,2.72,4.2,4.2,0,0,0,2.21.52Z" transform="translate(-18.26 -20.89)"/><path d="M138,412.89a13.61,13.61,0,0,1-3.94-.58,9.19,9.19,0,0,1-3.3-1.76,8.55,8.55,0,0,1-2.24-3,10.45,10.45,0,0,1-.83-4.33v-11.4a7.75,7.75,0,0,1,.93-3.72,10,10,0,0,1,2.5-3,11.5,11.5,0,0,1,3.68-2,14.08,14.08,0,0,1,4.49-.71h4a14.94,14.94,0,0,1,4.9.77,12.84,12.84,0,0,1,3.81,2,8.81,8.81,0,0,1,2.47,3.07,8.71,8.71,0,0,1,.86,3.78v11.79a9.24,9.24,0,0,1-.7,3.65,7.72,7.72,0,0,1-2,2.85,9.6,9.6,0,0,1-3.21,1.86,12.1,12.1,0,0,1-4.16.68Zm4.94-5.83a4.05,4.05,0,0,0,1.89-.42,4.64,4.64,0,0,0,1.34-1,3.92,3.92,0,0,0,.8-1.34,4.39,4.39,0,0,0,.26-1.44v-9.1a4.55,4.55,0,0,0-1.25-3,4.38,4.38,0,0,0-3.49-1.44h-1.8a6.25,6.25,0,0,0-1.76.26,5,5,0,0,0-1.6.8,4,4,0,0,0-1.18,1.37,4.28,4.28,0,0,0-.45,2.05v8.72a6.67,6.67,0,0,0,.16,1.31,3.94,3.94,0,0,0,.64,1.51,4.16,4.16,0,0,0,1.34,1.21,4.23,4.23,0,0,0,2.21.52Z" transform="translate(-18.26 -20.89)"/><path d="M169.49,412.89H161.1V366.18h8.39Z" transform="translate(-18.26 -20.89)"/><path d="M224.78,412.89V395.72a8.19,8.19,0,0,0-.71-3.5,2.75,2.75,0,0,0-2.62-1.57q-3.58-.12-3.59,5.19v17.05h-7.05V395.72a6.12,6.12,0,0,0-1.05-3.53,3.69,3.69,0,0,0-3.24-1.54,5.65,5.65,0,0,0-2.75.58,4.42,4.42,0,0,0-1.61,1.51,5.22,5.22,0,0,0-.73,2.08,16.31,16.31,0,0,0-.16,2.31v15.76H192V381.75h9.29v3.33a3.17,3.17,0,0,1,1.53-1,6.33,6.33,0,0,1,2.31-.48h3.2a7.09,7.09,0,0,1,3.27.77,7.38,7.38,0,0,1,2.56,2.05,6.19,6.19,0,0,1,2.57-2.05,7.16,7.16,0,0,1,3-.77h2.88a7.12,7.12,0,0,1,3.33.8,8,8,0,0,1,2.66,2.24,10.74,10.74,0,0,1,1.76,3.46,14.38,14.38,0,0,1,.64,4.39v18.39Z" transform="translate(-18.26 -20.89)"/><path d="M262.19,400.84a21,21,0,0,0,1.06,6.15,28.23,28.23,0,0,0,3.11,6.66H258.8l-1.73-3.71a8.1,8.1,0,0,1-2.66,2.15,6.86,6.86,0,0,1-3,.73h-7.63a8.33,8.33,0,0,1-2.78-.51,7.55,7.55,0,0,1-2.6-1.57,8.41,8.41,0,0,1-1.92-2.72,9.48,9.48,0,0,1-.77-4V392.45a9.41,9.41,0,0,1,.64-3.49,9,9,0,0,1,1.83-2.89,8.34,8.34,0,0,1,2.88-1.95,10,10,0,0,1,3.88-.7h3.46a11.07,11.07,0,0,1,1.21.09,7.75,7.75,0,0,1,1.6.39,8.64,8.64,0,0,1,1.64.76,6.05,6.05,0,0,1,1.44,1.25v-3.58h7.94Zm-9.22-6.6a6.24,6.24,0,0,0-.45-2.5,4.55,4.55,0,0,0-1.15-1.63,4.82,4.82,0,0,0-1.54-.9,5,5,0,0,0-1.6-.28H246.5a3.37,3.37,0,0,0-2.63,1.24,4.15,4.15,0,0,0-1.09,2.79v10.25a9,9,0,0,0,.1,1.25,3.45,3.45,0,0,0,.48,1.38,3.17,3.17,0,0,0,1.12,1.09,3.85,3.85,0,0,0,2,.45h2.11a5,5,0,0,0,3.14-.93,3.84,3.84,0,0,0,1.22-3.24Z" transform="translate(-18.26 -20.89)"/><path d="M292.69,381.81v6.35h-6.86v24.73h-9.41V388.16h-6.8v-6.35h6.8V368.1h9.41v13.71Z" transform="translate(-18.26 -20.89)"/><path d="M330.26,32.89v412h-300v-412h300m12-12h-324v436h324v-436Z" transform="translate(-18.26 -20.89)"/><path d="M197.89,76c2.69-1.93,5.61-3.58,8.05-5.78,6.71-6,14.44-9.6,23.46-10,2.6-.11,5.58,0,7.78,1.17A31.58,31.58,0,0,0,249.57,65c4.58.37,7.63,2.76,10.25,6.31a46.91,46.91,0,0,0,6.11,6.5c1.53,1.4,2.87,1,4-1a30.55,30.55,0,0,1,4.66-6.43c4.94-4.82,11.85-5,16.57,0A41.75,41.75,0,0,1,302.31,95c.62,5.55-2.65,9.37-8.16,11.09-3.52,1.09-3.26,1.05-2.68,4.84a32.55,32.55,0,0,1,.16,9.4A63.67,63.67,0,0,1,288.9,131c-1.38,4.33-1.36,4,2.93,6.12a81.05,81.05,0,0,1,11.91,7.22,10.19,10.19,0,0,1,4,8.79c-.08,3.59-1.41,5.22-4.89,5.8a16,16,0,0,1-2.49.19c-4.06.07-4.18.2-3.44,4.27.09.49.28,1,.36,1.46,1.15,7.31-3,12.22-10.45,11.68-3.66-.27-6.73,0-9.87,2.15-2.65,1.84-5.92,1.12-8.6-.44-5.15-3-9.43-1.41-13.83,1.7-3.94,2.79-8.1,5.29-12.29,7.68-5.39,3.06-11.18,3.05-17,1.51-10.37-2.74-19.05-8-25.09-17.08a6.26,6.26,0,0,0-5.26-3.11c-8-.56-13.81-4.24-16.67-12.16a23.44,23.44,0,0,0-4.51-7.71c-3.13-3.45-3.11-7.1-2.27-11.22a29.62,29.62,0,0,0,.71-7.32c-.24-5.3,3.5-7.6,7.13-10,1.33-.87,3.39-1.16,4.07-2.33.52-.89-.76-2.72-1-4.17a26,26,0,0,1-.05-4.5c0-1.23.21-2.46.33-3.69-1.16.64-2.29,1.35-3.48,1.91-4.23,2-8.45,4-12.75,5.76-1.88.78-2.6,1.71-2.18,3.76,1.4,6.78.93,13.57.25,20.43a86.88,86.88,0,0,0,.23,14.51c1.34,19.16-10.24,32.44-26.44,38.83-3,1.17-6.57.69-9.82,1-17.79,0-29.79-9.47-38.79-23.59-1.54-2.4-2.57-3.3-5.68-3-8.87,1-17.62-6.7-19-16.42a40,40,0,0,1,.39-10.41,13.53,13.53,0,0,0-1.08-8.13,36,36,0,0,1-2.62-9.07A55.72,55.72,0,0,1,89.62,62c10.28-5.8,21.06-9.29,33-7.83a47.26,47.26,0,0,1,21.58,8.62c8.13,5.67,14.27,12.95,19.71,21A8.86,8.86,0,0,0,168.11,87c6,2.09,12,4.17,16.08,9.57,1.14,1.51,1.54.17,1.84-.78,1.08-3.5,2-7.06,3.26-10.5C189.29,85.27,189.85,81.75,197.89,76Zm-37.7,59a4.31,4.31,0,0,0-2.13-4.14c-3.35-2.27-7.23-3.77-11.72.58-1,1-2.25,1.73-3.5.49s-.8-2.73.34-4a11.78,11.78,0,0,1,1.48-1.34c4.06-3.21,8.43-3.61,13.17-1.63a13.3,13.3,0,0,1,2.28,2.61s.12-7.38-1.72-9-3.47-.7-5.13.16a32,32,0,0,0-2.94,1.9A13.31,13.31,0,0,1,137.87,122a40.6,40.6,0,0,1-6.38-2.88c-9.88-5.57-17.7-1.57-23.17,4.86-2.8,3.29-5.13,7-7.84,10.38-2.5,3.11-5.12,6.14-7.87,9-1.76,1.84-3,1.62-4.4-.53-.91-1.39-1.54-3-2.36-4.41a8.28,8.28,0,0,0-8.37-4.35c-3.88.29-6.41,2.47-7.62,6.22a16.69,16.69,0,0,0,5.29,17.19c3.11,2.47,6.51,3.83,10.69,2.63,3.4-1,5.15-.08,6.78,3.36a40.42,40.42,0,0,0,17.13,18.38c16.51,9.23,25.75,8.52,40.09-3.68,2.86-2.44,5.08-5.72,7.3-8.82a14.53,14.53,0,0,0,2.57-7.92C160.24,152.36,160.06,138.85,160.19,135Zm39.93-8.17c-4.9-.08-5,0-4.64,4.61,0,.33,0,.67.07,1,1,7.44,1.9,14.9,2.89,22.34a32.42,32.42,0,0,0,6.63,16c4.8,6.16,11.15,9.89,18.23,12.74s13.94,2.61,20.37-2c2.29-1.65,4.83-3,7.14-4.61,6.54-4.65,11.16-10.45,11.32-19a5.3,5.3,0,0,1,3.79-5.29,8.92,8.92,0,0,0,6.06-7.34,6.16,6.16,0,0,0-6.1-7.4c-.82,0-1.64.37-2.47.4-4.72.19-7.1-2.6-6.22-7.25a40.59,40.59,0,0,0,1.17-6.38c.08-2.85-.27-6-3-7.57s-5,.55-7.26,2a18.53,18.53,0,0,1-2,1.45c-4.22,2-8.33,4.29-12.75,5.6-4.91,1.44-10,1.28-14.05-2.75a11.68,11.68,0,0,0-2.52-1.62c-2.41-1.36-4.47-1.61-6.59.9A11.8,11.8,0,0,1,200.12,126.84Zm-58.17-13c13.83-.72,25.11-5,35.87-11a5.27,5.27,0,0,0,.82-.58c2-1.68,2.19-2.69.21-4.46a28.77,28.77,0,0,0-14.4-6.55,6,6,0,0,0-2.93.43,228.86,228.86,0,0,0-35.68,17,8.15,8.15,0,0,0-1.41,1.35,6.92,6.92,0,0,0,2.06,1.2C132.05,112.25,137.64,113.16,142,113.89Zm-25.23-51-1.82.53a14.28,14.28,0,0,0,1.11,2,10.57,10.57,0,0,0,1.51,1.29,73,73,0,0,1,14.91,18c1.76,3,3.36,6.13,5,9.22.73,1.38,1.62,2,3.21,1.3q8.7-3.8,17.43-7.52c1.39-.59,1.77-1.57.87-2.73-2.43-3.15-4.44-7-7.56-9.18C141.18,68.66,129.62,64.56,116.72,62.93ZM96.43,74.22a22.79,22.79,0,0,0-1.16,2.93c-3.45,14.68-3.15,29.41-.25,44.13.55,2.79,1,2.91,3.13,1.26,4.49-3.46,8.87-7.06,13.45-10.38,1.91-1.38,2-2.72,1.19-4.65-3.3-7.63-6.44-15.33-9.85-22.9A92.17,92.17,0,0,0,98,75.93,12.75,12.75,0,0,0,96.43,74.22ZM297.93,94c-.39-6.57-4-13.08-8.75-19-3.34-4.21-7.47-5-10.86-1.93a23,23,0,0,0-5.11,7.8c-.42,1,1.22,2.79,1.9,4.22.36.76.66,1.54,1.05,2.27,1.42,2.74,2.57,3,4.88.76,1.57-1.48,2.93-3.19,4.54-4.62a2.23,2.23,0,0,1,2.15-.12,2.35,2.35,0,0,1,.76,2.1,11.72,11.72,0,0,1-2.29,3.15,64.54,64.54,0,0,1-4.72,4.49c-1.46,1.25-1.26,2.53-.43,4,2.61,4.64,5.75,5.81,11.9,4.37C297,100.57,297.94,99.36,297.93,94ZM81,78.52a38.33,38.33,0,0,1,1.77-3.58,1.3,1.3,0,0,0,0-.93,12,12,0,0,0-3.65,2.37C64.64,92.1,62.74,110.25,68.76,129.93c.56,1.85,2,2.23,3.13.68a6.39,6.39,0,0,0,.83-3.59A143.81,143.81,0,0,1,81,78.52Zm111.46,66.39c-.39-3-.65-5.61-1.13-8.2a12.51,12.51,0,0,0-1.36-2.93c-1.1.86-2.65,1.5-3.22,2.63-1.41,2.8.5,7.81,3.38,9.58a2.24,2.24,0,0,0,1.8.35C192.29,146.11,192.32,145.22,192.42,144.91Z" transform="translate(-18.26 -20.89)"/><path d="M132.32,177.55c-7.32,0-11.94-2.77-13.82-8.35-1.31-3.87-.49-5,3.56-5.6,6.56-1,13.09-2.17,19.63-3.33,2.6-.46,3.57.08,3.8,2.35C146.19,169.68,139.26,177.53,132.32,177.55Zm-2-4.85c4.27,0,7.11-1.35,8.87-4.61a18.44,18.44,0,0,0,1.27-2.33,22.45,22.45,0,0,0-2.67.57c-3.28.47-12.31,1.87-13.55,2.4,1.51,2.34,2.1,2.75,3.34,3.41A8.1,8.1,0,0,0,130.34,172.7Z" transform="translate(-18.26 -20.89)"/><path d="M144.35,150c.14,5.54-3.17,9.19-7,9.19a2.31,2.31,0,0,1-1.35-4.38c4-2.91,4-2.84,2.07-7.14a42.85,42.85,0,0,1-2.71-6.38,3.85,3.85,0,0,1,1-3.35c1.31-1,2.46.1,3.08,1.41C141.3,143.32,143.14,147.35,144.35,150Z" transform="translate(-18.26 -20.89)"/><path d="M120.74,133.17a13.13,13.13,0,0,0-9.44,3c-.93.71-1.77,1.52-2.67,2.26-1.13.92-2.3,1.44-3.51.13s-.76-2.5.24-3.55c3.43-3.58,7.41-6.25,12.52-6.61a16,16,0,0,1,5.44.38,3.88,3.88,0,0,1,2.45,2.55c.12,1.9-1.54,2.29-3.21,2.11C122.07,133.42,121.58,133.31,120.74,133.17Z" transform="translate(-18.26 -20.89)"/><path d="M128,138.9a2.55,2.55,0,0,1-.27,4.36l0,0c-.47.22-1.27-.16-1.89-.36-4-1.3-7.13.14-9.7,3.23-1.23,1.48-2.48,3.91-4.71,1.95s-.06-3.65,1.14-5.13c4-4.91,9.79-6.74,14.59-4.56A5.82,5.82,0,0,1,128,138.9Z" transform="translate(-18.26 -20.89)"/><path d="M86.35,154.33l-.26.28a2.56,2.56,0,0,1-3.91-.13,1.78,1.78,0,0,1-.26-.56,7.67,7.67,0,0,0-5.36-6c-1.53-.52-2.89-1.33-2.22-3.2s2.14-1.73,3.75-1.33A11.09,11.09,0,0,1,86.35,154.33Z" transform="translate(-18.26 -20.89)"/><path d="M146.83,134.93a9.09,9.09,0,0,1,8.92.57l.19.12a2.57,2.57,0,0,1,.86,2.36c-.32.69-1.76,1.55-2.27,1.33-3.26-1.46-5.64-.42-8,1.93a1,1,0,0,1-.57.26,2.43,2.43,0,0,1-2.74-2.48,2,2,0,0,1,.27-1.11A8.74,8.74,0,0,1,146.83,134.93Z" transform="translate(-18.26 -20.89)"/><path d="M232.61,177.86c-4.92-.17-8.7-1.6-11.24-5.43s-1.5-6.29,3-6.8c4.8-.54,9.62-1.06,14.44-1.32,4.43-.23,5.42,1.36,3.54,5.46C240.37,174.2,237.73,178,232.61,177.86ZM226,170.23a6.79,6.79,0,0,0,7.63,2.92c1.88-.58,3.59-2.71,4.48-4.17C236.75,168.72,227.53,169.7,226,170.23Z" transform="translate(-18.26 -20.89)"/><path d="M226.94,162c-6.7,0-8.7-2.4-7.68-8,.21-1.15.42-2.3.59-3.46.65-4.24-1.3-6.25-5.6-5.44-1.76.33-3.33,1.55-5.08,2-.9.22-2.51-.07-2.9-.69a3.29,3.29,0,0,1,.38-3c3.39-4.07,13.58-4.17,17-.23a4.82,4.82,0,0,1,1.12,2.68,21,21,0,0,1-.23,5.44c-1.16,6-1.23,6,4.83,5.49,1.45-.13,3,0,3,1.62a4,4,0,0,1-1.9,2.94A10.35,10.35,0,0,1,226.94,162Z" transform="translate(-18.26 -20.89)"/><path d="M239.85,130.23a11.63,11.63,0,0,1,7-.08,37.34,37.34,0,0,1,4.63,1.69,3.57,3.57,0,0,1,1.31,3.15c-.32,1.45-1.83,1.87-3.23,1.11-4.34-2.34-8.65-1.5-13-.15a.93.93,0,0,1-.29.05,2.1,2.1,0,0,1-2-2.9,1.66,1.66,0,0,1,.69-1A41.93,41.93,0,0,1,239.85,130.23Z" transform="translate(-18.26 -20.89)"/><path d="M238.68,141.33a11.65,11.65,0,0,1,8.06-.37c1.61.52,3.15,1,4.67,1.6s2.67,1.71,1.86,3.46-2.24,1.7-3.78.86a11.87,11.87,0,0,0-12.72.22,1.07,1.07,0,0,1-.48.13,2.32,2.32,0,0,1-2.2-2.92,1.56,1.56,0,0,1,.56-1A34.79,34.79,0,0,1,238.68,141.33Z" transform="translate(-18.26 -20.89)"/><path d="M219.25,135a3.63,3.63,0,0,1-3.42.46c-4.16-1.44-7.43-.21-10.53,2.44a3,3,0,0,1-2.92-.33,3.27,3.27,0,0,1-.06-3c2.81-4.55,11.75-6.27,16.24-3.14.79.55,1.68,2.11,1.41,2.74A2.25,2.25,0,0,1,219.25,135Z" transform="translate(-18.26 -20.89)"/></svg>