<?xml version="1.0" encoding="UTF-8" standalone="no"?>
<svg width="28px" height="28px" viewBox="0 0 28 28" version="1.1" xmlns="http://www.w3.org/2000/svg" xmlns:xlink="http://www.w3.org/1999/xlink">
    <!-- Generator: Sketch 49.3 (51167) - http://www.bohemiancoding.com/sketch -->
    <title>Combined Shape</title>
    <desc>Created with Sketch.</desc>
    <defs></defs>
    <g id="Page-1" stroke="none" stroke-width="1" fill="none" fill-rule="evenodd">
        <g id="Desktop-HD-Copy-13" transform="translate(-1343.000000, -4359.000000)" fill="#000000">
            <g id="Footer" transform="translate(31.000000, 4272.000000)">
                <path d="M1326,115 C1318.26801,115 1312,108.731986 1312,101 C1312,93.2680135 1318.26801,87 1326,87 C1333.73199,87 1340,93.2680135 1340,101 C1340,108.731986 1333.73199,115 1326,115 Z M1327.12266,109.285714 L1327.12266,101.770494 L1329.5405,101.770494 L1329.90241,98.8417763 L1327.12266,98.8417763 L1327.12266,96.9717859 C1327.12266,96.123947 1327.34846,95.5459799 1328.51348,95.5459799 L1330,95.5453209 L1330,92.9256867 C1329.74325,92.8900992 1328.86087,92.8103568 1327.83418,92.8103568 C1325.69109,92.8103568 1324.22384,94.1752028 1324.22384,96.6818138 L1324.22384,98.8417763 L1321.8,98.8417763 L1321.8,101.770494 L1324.22384,101.770494 L1324.22384,109.285714 L1327.12266,109.285714 Z" id="Combined-Shape"></path>
            </g>
        </g>
    </g>
</svg>