<?xml version="1.0" encoding="UTF-8" standalone="no"?>
<svg width="28px" height="28px" viewBox="0 0 28 28" version="1.1" xmlns="http://www.w3.org/2000/svg" xmlns:xlink="http://www.w3.org/1999/xlink">
    <!-- Generator: Sketch 49.3 (51167) - http://www.bohemiancoding.com/sketch -->
    <title>Twitter Copy</title>
    <desc>Created with Sketch.</desc>
    <defs></defs>
    <g id="Page-1" stroke="none" stroke-width="1" fill="none" fill-rule="evenodd">
        <g id="Desktop-HD-Copy-13" transform="translate(-1387.000000, -4359.000000)" fill="#000000">
            <g id="Footer" transform="translate(31.000000, 4272.000000)">
                <path d="M1370,115 C1377.73199,115 1384,108.731986 1384,101 C1384,93.2680135 1377.73199,87 1370,87 C1362.26801,87 1356,93.2680135 1356,101 C1356,108.731986 1362.26801,115 1370,115 Z M1370.18206,94.0063095 C1368.23152,94.0063095 1367.98694,94.0145772 1367.2209,94.0495294 C1366.45645,94.0843962 1365.93436,94.2058168 1365.47753,94.383372 C1365.00525,94.5668856 1364.60473,94.8124638 1364.20543,95.2117349 C1363.80615,95.6110346 1363.56058,96.0115601 1363.37706,96.4838433 C1363.19951,96.9406745 1363.07809,97.4627632 1363.04322,98.2272085 C1363.00827,98.9932504 1363,99.2378307 1363,101.188372 C1363,103.138885 1363.00827,103.383465 1363.04322,104.149507 C1363.07809,104.913953 1363.19951,105.436041 1363.37706,105.892872 C1363.56058,106.365156 1363.80615,106.765681 1364.20543,107.164981 C1364.60473,107.564252 1365.00525,107.80983 1365.47753,107.993372 C1365.93436,108.170899 1366.45645,108.29232 1367.2209,108.327186 C1367.98694,108.362139 1368.23152,108.370406 1370.18206,108.370406 C1372.13258,108.370406 1372.37716,108.362139 1373.1432,108.327186 C1373.90764,108.29232 1374.42973,108.170899 1374.88656,107.993372 C1375.35885,107.80983 1375.75937,107.564252 1376.15867,107.164981 C1376.55794,106.765681 1376.80352,106.365156 1376.98706,105.892872 C1377.16459,105.436041 1377.28601,104.913953 1377.32088,104.149507 C1377.35583,103.383465 1377.3641,103.138885 1377.3641,101.188372 C1377.3641,99.2378307 1377.35583,98.9932504 1377.32088,98.2272085 C1377.28601,97.4627632 1377.16459,96.9406745 1376.98706,96.4838433 C1376.80352,96.0115601 1376.55794,95.6110346 1376.15867,95.2117349 C1375.75937,94.8124638 1375.35885,94.5668856 1374.88656,94.383372 C1374.42973,94.2058168 1373.90764,94.0843962 1373.1432,94.0495294 C1372.37716,94.0145772 1372.13258,94.0063095 1370.18206,94.0063095 Z M1370.18206,95.30037 C1372.09973,95.30037 1372.32689,95.3076968 1373.08421,95.34225 C1373.78445,95.3741803 1374.16474,95.491182 1374.41781,95.5895387 C1374.75305,95.7198256 1374.9923,95.8754573 1375.24361,96.1267943 C1375.49495,96.3781027 1375.65058,96.6173518 1375.78087,96.9525913 C1375.87922,97.2056674 1375.99623,97.5859514 1376.02816,98.286194 C1376.06271,99.0435121 1376.07004,99.2706733 1376.07004,101.188372 C1376.07004,103.106043 1376.06271,103.333204 1376.02816,104.090522 C1375.99623,104.790764 1375.87922,105.171048 1375.78087,105.424124 C1375.65058,105.759364 1375.49495,105.998613 1375.24361,106.249922 C1374.9923,106.501259 1374.75305,106.65689 1374.41781,106.787177 C1374.16474,106.885534 1373.78445,107.002536 1373.08421,107.034466 C1372.32701,107.069019 1372.09988,107.076346 1370.18206,107.076346 C1368.26422,107.076346 1368.03712,107.069019 1367.27988,107.034466 C1366.57964,107.002536 1366.19936,106.885534 1365.94628,106.787177 C1365.61104,106.65689 1365.37179,106.501259 1365.12048,106.249922 C1364.86918,105.998613 1364.71352,105.759364 1364.58323,105.424124 C1364.48487,105.171048 1364.36787,104.790764 1364.33594,104.090522 C1364.30139,103.333204 1364.29406,103.106043 1364.29406,101.188372 C1364.29406,99.2706733 1364.30139,99.0435121 1364.33594,98.286194 C1364.36787,97.5859514 1364.48487,97.2056674 1364.58323,96.9525913 C1364.71352,96.6173518 1364.86915,96.3781027 1365.12048,96.1267943 C1365.37179,95.8754573 1365.61104,95.7198256 1365.94628,95.5895387 C1366.19936,95.491182 1366.57964,95.3741803 1367.27988,95.34225 C1368.0372,95.3076968 1368.26436,95.30037 1370.18206,95.30037 L1370.18206,95.30037 Z M1370.18206,103.582374 C1368.85986,103.582374 1367.78803,102.510543 1367.78803,101.188372 C1367.78803,99.8661731 1368.85986,98.7943418 1370.18206,98.7943418 C1371.50423,98.7943418 1372.57606,99.8661731 1372.57606,101.188372 C1372.57606,102.510543 1371.50423,103.582374 1370.18206,103.582374 Z M1370.18206,97.5002813 C1372.21893,97.5002813 1373.87012,99.1514764 1373.87012,101.188372 C1373.87012,103.225239 1372.21893,104.876434 1370.18206,104.876434 C1368.14517,104.876434 1366.49397,103.225239 1366.49397,101.188372 C1366.49397,99.1514764 1368.14517,97.5002813 1370.18206,97.5002813 Z M1374.8777,97.3545709 C1374.8777,97.8305602 1374.49182,98.2164036 1374.01584,98.2164036 C1373.53987,98.2164036 1373.154,97.8305602 1373.154,97.3545709 C1373.154,96.8785815 1373.53987,96.4927097 1374.01584,96.4927097 C1374.49182,96.4927097 1374.8777,96.8785815 1374.8777,97.3545709 Z" id="Twitter-Copy"></path>
            </g>
        </g>
    </g>
</svg>